<svg width="16" height="16" viewBox="0 0 16 16" fill="none"
    xmlns="http://www.w3.org/2000/svg">
    <path d="M16 5.52083C16 3.03315 13.8198 1.01666 11.1303 1.01666C8.65341 1.01666 6.61319 2.72875 6.30519 4.94226C5.89314 4.73689 5.42205 4.62014 4.92146 4.62014C3.30805 4.62014 2 5.8301 2 7.32257C2 8.75805 3.21119 9.92909 4.73946 10.0167L11.3622 10.0142C13.9431 9.90164 16 7.93624 16 5.52083Z" fill="#3DD9EB"/>
    <path d="M8 8.01666H0V9.01666H8V8.01666Z" fill="currentColor"/>
    <path d="M8 8.01666H2C2.15854 8.40266 2.41452 8.74433 2.73996 9.01666H8V8.01666Z" fill="#2100C4"/>
    <path d="M12.897 15.0167C12.0884 15.0167 11.3643 14.5879 11.0078 13.8974L12.0379 13.4167C12.2001 13.7308 12.5294 13.9258 12.897 13.9258C13.1846 13.9258 13.4546 13.8043 13.6375 13.5923C13.8226 13.3774 13.8922 13.1043 13.8329 12.8232C13.7549 12.4552 13.2722 12.1076 12.8392 12.1076H5V11.0167H12.8392C13.8222 11.0167 14.7727 11.7308 14.9574 12.6083C15.0837 13.2072 14.9261 13.8178 14.5245 14.2832C14.1232 14.7494 13.53 15.0167 12.897 15.0167Z" fill="currentColor"/>
    <path d="M3 11.0167H0V12.0167H3V11.0167Z" fill="currentColor"/>
</svg>
